<svg xmlns="http://www.w3.org/2000/svg" xmlns:xlink="http://www.w3.org/1999/xlink" width="1024" zoomAndPan="magnify" viewBox="0 0 768 767.999994" height="1024" preserveAspectRatio="xMidYMid meet" version="1.0"><defs><g/><clipPath id="f9d52d42a8"><path d="M 0.175781 0.800781 L 708 0.800781 L 708 231.199219 L 0.175781 231.199219 Z M 0.175781 0.800781 " clip-rule="nonzero"/></clipPath><clipPath id="3e45d85368"><path d="M 22.675781 0.800781 L 685.324219 0.800781 C 691.292969 0.800781 697.015625 3.171875 701.234375 7.390625 C 705.453125 11.609375 707.824219 17.332031 707.824219 23.300781 L 707.824219 208.699219 C 707.824219 221.125 697.75 231.199219 685.324219 231.199219 L 22.675781 231.199219 C 10.246094 231.199219 0.175781 221.125 0.175781 208.699219 L 0.175781 23.300781 C 0.175781 10.875 10.246094 0.800781 22.675781 0.800781 Z M 22.675781 0.800781 " clip-rule="nonzero"/></clipPath><clipPath id="8aaeeb4224"><path d="M 0.175781 0.800781 L 708 0.800781 L 708 231.199219 L 0.175781 231.199219 Z M 0.175781 0.800781 " clip-rule="nonzero"/></clipPath><clipPath id="cdc525a739"><path d="M 22.675781 0.800781 L 685.324219 0.800781 C 691.292969 0.800781 697.015625 3.171875 701.234375 7.390625 C 705.453125 11.609375 707.824219 17.332031 707.824219 23.300781 L 707.824219 208.699219 C 707.824219 221.125 697.75 231.199219 685.324219 231.199219 L 22.675781 231.199219 C 10.246094 231.199219 0.175781 221.125 0.175781 208.699219 L 0.175781 23.300781 C 0.175781 10.875 10.246094 0.800781 22.675781 0.800781 Z M 22.675781 0.800781 " clip-rule="nonzero"/></clipPath><clipPath id="877acbfb1a"><rect x="0" width="708" y="0" height="232"/></clipPath><clipPath id="bbb9a92baf"><rect x="0" width="409" y="0" height="111"/></clipPath><clipPath id="69100d2c17"><rect x="0" width="419" y="0" height="36"/></clipPath><clipPath id="ababfc4ff2"><path d="M 16.441406 100 L 28 100 L 28 111 L 16.441406 111 Z M 16.441406 100 " clip-rule="nonzero"/></clipPath><clipPath id="fe5bb0de7c"><rect x="0" width="709" y="0" height="232"/></clipPath></defs><g transform="matrix(1, 0, 0, 1, 30, 268)"><g clip-path="url(#fe5bb0de7c)"><g clip-path="url(#f9d52d42a8)"><g clip-path="url(#3e45d85368)"><g transform="matrix(1, 0, 0, 1, 0, -0.000000000000056843)"><g clip-path="url(#877acbfb1a)"><g clip-path="url(#8aaeeb4224)"><g clip-path="url(#cdc525a739)"><path fill="#ffffff" d="M 0.175781 0.800781 L 707.574219 0.800781 L 707.574219 231.199219 L 0.175781 231.199219 Z M 0.175781 0.800781 " fill-opacity="1" fill-rule="nonzero"/></g></g></g></g></g></g><g transform="matrix(1, 0, 0, 1, 283, 46)"><g clip-path="url(#bbb9a92baf)"><g fill="#000000" fill-opacity="1"><g transform="translate(0.236814, 87.100459)"><g><path d="M 31.34375 -68.09375 C 37.050781 -68.09375 42.015625 -67.144531 46.234375 -65.25 C 50.453125 -63.363281 53.691406 -60.679688 55.953125 -57.203125 C 58.222656 -53.734375 59.359375 -49.675781 59.359375 -45.03125 C 59.359375 -40.375 58.222656 -36.304688 55.953125 -32.828125 C 53.691406 -29.359375 50.453125 -26.675781 46.234375 -24.78125 C 42.015625 -22.894531 37.050781 -21.953125 31.34375 -21.953125 L 22.609375 -21.953125 L 22.609375 0 L 6.703125 0 L 6.703125 -68.09375 Z M 29.578125 -35.359375 C 33.429688 -35.359375 36.566406 -36.097656 38.984375 -37.578125 C 41.398438 -39.066406 42.609375 -41.550781 42.609375 -45.03125 C 42.609375 -48.4375 41.382812 -50.898438 38.9375 -52.421875 C 36.488281 -53.941406 33.367188 -54.703125 29.578125 -54.703125 L 22.609375 -54.703125 L 22.609375 -35.359375 Z M 29.578125 -35.359375 "/></g></g></g><g fill="#000000" fill-opacity="1"><g transform="translate(61.353232, 87.100459)"><g><path d="M 13.03125 -53.21875 C 10.601562 -53.21875 8.519531 -54.097656 6.78125 -55.859375 C 5.050781 -57.628906 4.1875 -59.722656 4.1875 -62.140625 C 4.1875 -64.617188 5.035156 -66.742188 6.734375 -68.515625 C 8.441406 -70.285156 10.539062 -71.171875 13.03125 -71.171875 C 15.382812 -71.171875 17.441406 -70.269531 19.203125 -68.46875 C 20.972656 -66.664062 21.859375 -64.554688 21.859375 -62.140625 C 21.859375 -59.722656 20.988281 -57.628906 19.25 -55.859375 C 17.519531 -54.097656 15.445312 -53.21875 13.03125 -53.21875 Z M 20.65625 0 L 5.484375 0 L 5.484375 -48.09375 L 20.65625 -48.09375 Z M 20.65625 0 "/></g></g></g><g fill="#000000" fill-opacity="1"><g transform="translate(87.399801, 87.100459)"><g><path d="M 26.140625 -35.359375 L 35.171875 -48.09375 L 51.71875 -48.09375 L 33.953125 -24.46875 L 51.71875 0 L 34.515625 0 L 25.578125 -12.84375 L 16.65625 0 L 0.09375 0 L 17.765625 -23.71875 L 0.09375 -48.09375 L 17.296875 -48.09375 Z M 26.140625 -35.359375 "/></g></g></g><g fill="#000000" fill-opacity="1"><g transform="translate(139.213877, 87.100459)"><g><path d="M 27.625 -49.40625 C 32.03125 -49.40625 35.921875 -48.457031 39.296875 -46.5625 C 42.679688 -44.664062 45.300781 -41.953125 47.15625 -38.421875 C 49.019531 -34.890625 49.953125 -30.765625 49.953125 -26.046875 C 49.953125 -24.066406 49.769531 -21.957031 49.40625 -19.71875 L 18.609375 -19.71875 C 19.285156 -17.050781 20.460938 -14.988281 22.140625 -13.53125 C 23.816406 -12.070312 25.863281 -11.34375 28.28125 -11.34375 C 30.269531 -11.34375 32.050781 -11.804688 33.625 -12.734375 C 35.207031 -13.671875 36.375 -15.039062 37.125 -16.84375 L 48.1875 -10.234375 C 46.820312 -6.578125 44.25 -3.753906 40.46875 -1.765625 C 36.6875 0.210938 32.4375 1.203125 27.71875 1.203125 C 23.382812 1.203125 19.304688 0.242188 15.484375 -1.671875 C 11.671875 -3.597656 8.601562 -6.484375 6.28125 -10.328125 C 3.957031 -14.171875 2.796875 -18.820312 2.796875 -24.28125 C 2.796875 -29.675781 3.957031 -34.265625 6.28125 -38.046875 C 8.601562 -41.828125 11.65625 -44.664062 15.4375 -46.5625 C 19.226562 -48.457031 23.289062 -49.40625 27.625 -49.40625 Z M 27.171875 -37.3125 C 25.054688 -37.3125 23.269531 -36.671875 21.8125 -35.390625 C 20.351562 -34.117188 19.285156 -32.335938 18.609375 -30.046875 L 34.609375 -30.046875 C 34.359375 -32.398438 33.550781 -34.195312 32.1875 -35.4375 C 30.820312 -36.6875 29.148438 -37.3125 27.171875 -37.3125 Z M 27.171875 -37.3125 "/></g></g></g><g fill="#000000" fill-opacity="1"><g transform="translate(191.493069, 87.100459)"><g><path d="M 20.65625 0 L 5.484375 0 L 5.484375 -70.796875 L 20.65625 -70.796875 Z M 20.65625 0 "/></g></g></g><g fill="#000000" fill-opacity="1"><g transform="translate(217.725685, 87.100459)"><g><path d="M 6.703125 -68.09375 L 52.28125 -68.09375 L 52.28125 -54.234375 L 22.609375 -54.234375 L 22.609375 -39.359375 L 49.21875 -39.359375 L 49.21875 -25.578125 L 22.609375 -25.578125 L 22.609375 0 L 6.703125 0 Z M 6.703125 -68.09375 "/></g></g></g><g fill="#000000" fill-opacity="1"><g transform="translate(272.144414, 87.100459)"><g><path d="M 36.46875 -48.09375 L 51.625 -48.09375 L 51.625 0 L 38.234375 0 L 38.046875 -2.046875 C 37.796875 -4.835938 37.582031 -6.632812 37.40625 -7.4375 C 34.238281 -1.675781 29.210938 1.203125 22.328125 1.203125 C 16.867188 1.203125 12.570312 -0.5625 9.4375 -4.09375 C 6.3125 -7.625 4.75 -12.832031 4.75 -19.71875 L 4.75 -48.09375 L 19.90625 -48.09375 L 19.90625 -24.84375 C 19.90625 -21 20.445312 -17.910156 21.53125 -15.578125 C 22.625 -13.253906 24.625 -12.09375 27.53125 -12.09375 C 30.382812 -12.09375 32.585938 -13.269531 34.140625 -15.625 C 35.691406 -17.988281 36.46875 -21.273438 36.46875 -25.484375 Z M 36.46875 -48.09375 "/></g></g></g><g fill="#000000" fill-opacity="1"><g transform="translate(329.353843, 87.100459)"><g><path d="M 27.625 -49.40625 C 32.03125 -49.40625 35.921875 -48.457031 39.296875 -46.5625 C 42.679688 -44.664062 45.300781 -41.953125 47.15625 -38.421875 C 49.019531 -34.890625 49.953125 -30.765625 49.953125 -26.046875 C 49.953125 -24.066406 49.769531 -21.957031 49.40625 -19.71875 L 18.609375 -19.71875 C 19.285156 -17.050781 20.460938 -14.988281 22.140625 -13.53125 C 23.816406 -12.070312 25.863281 -11.34375 28.28125 -11.34375 C 30.269531 -11.34375 32.050781 -11.804688 33.625 -12.734375 C 35.207031 -13.671875 36.375 -15.039062 37.125 -16.84375 L 48.1875 -10.234375 C 46.820312 -6.578125 44.25 -3.753906 40.46875 -1.765625 C 36.6875 0.210938 32.4375 1.203125 27.71875 1.203125 C 23.382812 1.203125 19.304688 0.242188 15.484375 -1.671875 C 11.671875 -3.597656 8.601562 -6.484375 6.28125 -10.328125 C 3.957031 -14.171875 2.796875 -18.820312 2.796875 -24.28125 C 2.796875 -29.675781 3.957031 -34.265625 6.28125 -38.046875 C 8.601562 -41.828125 11.65625 -44.664062 15.4375 -46.5625 C 19.226562 -48.457031 23.289062 -49.40625 27.625 -49.40625 Z M 27.171875 -37.3125 C 25.054688 -37.3125 23.269531 -36.671875 21.8125 -35.390625 C 20.351562 -34.117188 19.285156 -32.335938 18.609375 -30.046875 L 34.609375 -30.046875 C 34.359375 -32.398438 33.550781 -34.195312 32.1875 -35.4375 C 30.820312 -36.6875 29.148438 -37.3125 27.171875 -37.3125 Z M 27.171875 -37.3125 "/></g></g></g><g fill="#000000" fill-opacity="1"><g transform="translate(381.633045, 87.100459)"><g><path d="M 20.65625 0 L 5.484375 0 L 5.484375 -70.796875 L 20.65625 -70.796875 Z M 20.65625 0 "/></g></g></g></g></g><g transform="matrix(1, 0, 0, 1, 285, 139)"><g clip-path="url(#69100d2c17)"><g fill="#545454" fill-opacity="1"><g transform="translate(0.827155, 28.351546)"><g><path d="M 23.3125 -8 C 23.988281 -6.488281 24.742188 -5.191406 25.578125 -4.109375 C 26.410156 -3.035156 27.472656 -2.023438 28.765625 -1.078125 L 27.25 0.65625 C 26 -0.375 24.941406 -1.488281 24.078125 -2.6875 C 23.222656 -3.894531 22.4375 -5.367188 21.71875 -7.109375 L 20.625 -6.53125 C 21.039062 -5.21875 21.25 -3.765625 21.25 -2.171875 C 21.25 -0.640625 20.910156 0.410156 20.234375 0.984375 C 19.554688 1.554688 18.59375 1.84375 17.34375 1.84375 C 16.976562 1.84375 16.222656 1.785156 15.078125 1.671875 L 14.71875 -0.328125 C 14.894531 -0.304688 15.226562 -0.265625 15.71875 -0.203125 C 16.21875 -0.148438 16.660156 -0.125 17.046875 -0.125 C 17.597656 -0.125 18.019531 -0.1875 18.3125 -0.3125 C 18.613281 -0.4375 18.828125 -0.71875 18.953125 -1.15625 C 19.085938 -1.601562 19.132812 -2.265625 19.09375 -3.140625 C 19.0625 -3.828125 19.015625 -4.34375 18.953125 -4.6875 C 17.710938 -3.53125 16.300781 -2.484375 14.71875 -1.546875 C 13.144531 -0.617188 11.34375 0.28125 9.3125 1.15625 L 8.296875 -0.6875 C 12.671875 -2.28125 16.0625 -4.238281 18.46875 -6.5625 C 18.332031 -6.9375 18.125 -7.382812 17.84375 -7.90625 C 16.59375 -6.832031 15.285156 -5.921875 13.921875 -5.171875 C 12.554688 -4.429688 11 -3.757812 9.25 -3.15625 L 8.46875 -4.921875 C 11.9375 -5.941406 14.773438 -7.425781 16.984375 -9.375 L 16.265625 -10.328125 C 15.472656 -9.765625 14.523438 -9.265625 13.421875 -8.828125 C 12.328125 -8.390625 10.96875 -7.925781 9.34375 -7.4375 L 8.5 -9.28125 C 10.414062 -9.78125 11.957031 -10.28125 13.125 -10.78125 C 14.300781 -11.289062 15.238281 -11.894531 15.9375 -12.59375 L 10.265625 -12.59375 L 10.265625 -17.046875 L 8.71875 -15.9375 L 7.671875 -17.8125 C 11.085938 -20.039062 13.570312 -22.566406 15.125 -25.390625 L 17.34375 -24.6875 C 17.0625 -24.1875 16.734375 -23.664062 16.359375 -23.125 L 23.578125 -23.125 L 23.578125 -21.375 C 22.941406 -20.414062 22.164062 -19.53125 21.25 -18.71875 L 26.921875 -18.71875 L 26.921875 -12.59375 L 18.40625 -12.59375 C 18.132812 -12.15625 17.910156 -11.835938 17.734375 -11.640625 C 18.660156 -10.460938 19.382812 -9.359375 19.90625 -8.328125 C 20.863281 -8.804688 21.84375 -9.375 22.84375 -10.03125 C 23.851562 -10.6875 24.710938 -11.34375 25.421875 -12 L 26.703125 -10.421875 C 25.710938 -9.578125 24.582031 -8.769531 23.3125 -8 Z M 9.21875 -24.375 C 8.539062 -21.894531 7.71875 -19.5 6.75 -17.1875 L 6.75 2.265625 L 4.5 2.265625 L 4.5 -12.625 C 3.789062 -11.351562 3.097656 -10.257812 2.421875 -9.34375 L 1.109375 -11.609375 C 2.203125 -13.179688 3.269531 -15.175781 4.3125 -17.59375 C 5.351562 -20.007812 6.210938 -22.460938 6.890625 -24.953125 Z M 14.953125 -21.28125 C 14.253906 -20.46875 13.390625 -19.613281 12.359375 -18.71875 L 18.625 -18.71875 C 19.5625 -19.53125 20.328125 -20.382812 20.921875 -21.28125 Z M 12.390625 -14.328125 L 17.125 -14.328125 C 17.445312 -15.054688 17.65625 -15.941406 17.75 -16.984375 L 12.390625 -16.984375 Z M 24.765625 -14.328125 L 24.765625 -16.984375 L 19.703125 -16.984375 C 19.597656 -15.910156 19.425781 -15.023438 19.1875 -14.328125 Z M 24.765625 -14.328125 "/></g></g></g><g fill="#545454" fill-opacity="1"><g transform="translate(30.671092, 28.351546)"><g><path d="M 16.171875 -15.40625 L 28.46875 -15.40625 L 28.46875 -13.609375 L 14.828125 -13.609375 C 14.054688 -13.046875 13.191406 -12.457031 12.234375 -11.84375 C 11.273438 -11.226562 10.519531 -10.78125 9.96875 -10.5 L 17.25 -11.125 C 18.164062 -11.6875 19.3125 -12.445312 20.6875 -13.40625 L 22.4375 -12 C 18.195312 -9.351562 14.566406 -7.441406 11.546875 -6.265625 C 13.242188 -6.367188 14.9375 -6.476562 16.625 -6.59375 C 18.3125 -6.71875 20.003906 -6.835938 21.703125 -6.953125 C 21.203125 -7.390625 20.535156 -7.957031 19.703125 -8.65625 L 21.15625 -10.0625 C 21.914062 -9.457031 22.867188 -8.640625 24.015625 -7.609375 C 25.171875 -6.578125 26.148438 -5.660156 26.953125 -4.859375 L 25.609375 -3.3125 C 25.003906 -3.90625 24.347656 -4.53125 23.640625 -5.1875 L 16.359375 -4.75 L 16.359375 -1.3125 C 16.359375 -0.414062 16.253906 0.253906 16.046875 0.703125 C 15.847656 1.148438 15.519531 1.457031 15.0625 1.625 C 14.613281 1.789062 13.941406 1.875 13.046875 1.875 C 12.484375 1.875 11.609375 1.835938 10.421875 1.765625 L 10 -0.484375 C 11.050781 -0.335938 11.957031 -0.265625 12.71875 -0.265625 C 13.207031 -0.265625 13.550781 -0.410156 13.75 -0.703125 C 13.957031 -1.003906 14.0625 -1.492188 14.0625 -2.171875 L 14.0625 -4.625 C 10.351562 -4.382812 7.601562 -4.1875 5.8125 -4.03125 C 4.695312 -3.945312 3.863281 -3.875 3.3125 -3.8125 L 2.953125 -5.90625 C 4.460938 -5.96875 5.476562 -6.066406 6 -6.203125 C 8.5625 -6.859375 11.21875 -7.882812 13.96875 -9.28125 L 11.609375 -9.078125 C 10.597656 -8.992188 9.078125 -8.851562 7.046875 -8.65625 L 4.75 -8.453125 L 4.421875 -10.390625 C 5.117188 -10.460938 5.625 -10.53125 5.9375 -10.59375 C 6.257812 -10.65625 6.539062 -10.734375 6.78125 -10.828125 C 7.90625 -11.328125 9.503906 -12.253906 11.578125 -13.609375 L 1.4375 -13.609375 L 1.4375 -15.40625 L 13.765625 -15.40625 L 13.765625 -17.375 L 4.140625 -17.375 L 4.140625 -19.15625 L 13.765625 -19.15625 L 13.765625 -21.09375 L 2.75 -21.09375 L 2.75 -22.890625 L 13.765625 -22.890625 L 13.765625 -25.125 L 16.171875 -25.125 L 16.171875 -22.890625 L 27.15625 -22.890625 L 27.15625 -21.09375 L 16.171875 -21.09375 L 16.171875 -19.15625 L 25.75 -19.15625 L 25.75 -17.375 L 16.171875 -17.375 Z M 19.734375 -4.234375 C 20.003906 -4.117188 20.210938 -4.019531 20.359375 -3.9375 C 23.578125 -2.507812 26.269531 -1.25 28.4375 -0.15625 L 27.453125 1.796875 C 26.203125 1.140625 24.726562 0.410156 23.03125 -0.390625 C 21.34375 -1.203125 19.90625 -1.847656 18.71875 -2.328125 Z M 10.421875 -2.296875 C 9.265625 -1.578125 7.945312 -0.851562 6.46875 -0.125 C 5 0.59375 3.566406 1.234375 2.171875 1.796875 L 1.25 -0.203125 C 2.582031 -0.679688 3.976562 -1.28125 5.4375 -2 C 6.90625 -2.71875 8.195312 -3.441406 9.3125 -4.171875 Z M 10.421875 -2.296875 "/></g></g></g><g fill="#545454" fill-opacity="1"><g transform="translate(60.515029, 28.351546)"><g><path d="M 22.71875 -24.703125 L 25.25 -24.703125 L 25.25 2.0625 L 22.71875 2.0625 Z M 16.765625 -23.578125 L 16.765625 -14.6875 L 6.421875 -14.6875 L 6.0625 -10.5 L 16.921875 -10.5 C 16.898438 -8.09375 16.710938 -5.519531 16.359375 -2.78125 C 16.191406 -1.601562 15.9375 -0.707031 15.59375 -0.09375 C 15.25 0.519531 14.71875 0.957031 14 1.21875 C 13.28125 1.476562 12.285156 1.609375 11.015625 1.609375 C 9.578125 1.609375 8.015625 1.507812 6.328125 1.3125 L 5.84375 -1.046875 C 7.757812 -0.765625 9.441406 -0.625 10.890625 -0.625 C 11.847656 -0.625 12.546875 -0.832031 12.984375 -1.25 C 13.421875 -1.664062 13.71875 -2.40625 13.875 -3.46875 C 14.132812 -5.15625 14.304688 -6.722656 14.390625 -8.171875 L 3.375 -8.171875 L 4.09375 -16.953125 L 14.234375 -16.953125 L 14.234375 -21.28125 L 3.40625 -21.28125 L 3.40625 -23.578125 Z M 16.765625 -23.578125 "/></g></g></g><g fill="#545454" fill-opacity="1"><g transform="translate(90.358967, 28.351546)"><g><path d="M 15.609375 -18.828125 C 16.585938 -19.828125 17.378906 -20.832031 17.984375 -21.84375 C 18.585938 -22.863281 19.128906 -23.976562 19.609375 -25.1875 L 21.546875 -24.59375 C 21.171875 -23.65625 20.765625 -22.800781 20.328125 -22.03125 L 28.296875 -22.03125 L 28.296875 -20.234375 L 26.625 -20.234375 C 25.945312 -18.222656 24.953125 -16.59375 23.640625 -15.34375 C 24.953125 -14.582031 26.570312 -13.953125 28.5 -13.453125 L 27.671875 -11.578125 C 25.460938 -12.273438 23.609375 -13.113281 22.109375 -14.09375 C 20.640625 -13.09375 18.75 -12.234375 16.4375 -11.515625 L 15.515625 -13.375 C 17.648438 -13.945312 19.320312 -14.601562 20.53125 -15.34375 C 19.539062 -16.21875 18.707031 -17.289062 18.03125 -18.5625 C 17.707031 -18.144531 17.316406 -17.6875 16.859375 -17.1875 Z M 7.703125 -20.296875 L 5.640625 -20.296875 L 5.640625 -21.21875 L 1.640625 -21.21875 L 1.640625 -22.890625 L 5.640625 -22.890625 L 5.640625 -24.921875 L 7.703125 -24.921875 L 7.703125 -22.890625 L 11.109375 -22.890625 L 11.109375 -24.921875 L 13.15625 -24.921875 L 13.15625 -22.890625 L 16.953125 -22.890625 L 16.953125 -21.21875 L 13.15625 -21.21875 L 13.15625 -20.078125 L 11.109375 -20.078125 L 11.109375 -21.21875 L 7.703125 -21.21875 Z M 4.453125 -17.8125 C 3.554688 -16.71875 2.597656 -15.785156 1.578125 -15.015625 L 0.75 -16.71875 C 2.132812 -17.726562 3.238281 -18.976562 4.0625 -20.46875 L 5.84375 -19.9375 L 5.546875 -19.421875 L 15.515625 -19.421875 C 15.492188 -17.597656 15.40625 -15.78125 15.25 -13.96875 C 15.1875 -13.351562 15.070312 -12.882812 14.90625 -12.5625 C 14.738281 -12.25 14.457031 -12.023438 14.0625 -11.890625 C 13.675781 -11.765625 13.109375 -11.703125 12.359375 -11.703125 C 11.921875 -11.703125 11.503906 -11.722656 11.109375 -11.765625 L 10.796875 -13.3125 C 11.160156 -13.25 11.53125 -13.21875 11.90625 -13.21875 C 12.445312 -13.21875 12.804688 -13.285156 12.984375 -13.421875 C 13.160156 -13.566406 13.289062 -13.878906 13.375 -14.359375 C 13.507812 -15.390625 13.597656 -16.539062 13.640625 -17.8125 Z M 19.25 -20.234375 L 19.1875 -20.140625 C 19.882812 -18.609375 20.832031 -17.367188 22.03125 -16.421875 C 23.082031 -17.304688 23.925781 -18.578125 24.5625 -20.234375 Z M 10.59375 -16.65625 L 10.59375 -12.4375 L 3.515625 -12.4375 L 3.515625 -16.65625 Z M 8.921875 -15.28125 L 5.140625 -15.28125 L 5.140625 -13.8125 L 8.921875 -13.8125 Z M 16.59375 -5.40625 L 16.59375 -3.640625 L 28.078125 -3.640625 L 28.078125 -1.90625 L 16.59375 -1.90625 L 16.59375 -1.015625 C 16.59375 -0.140625 16.503906 0.515625 16.328125 0.953125 C 16.148438 1.390625 15.820312 1.703125 15.34375 1.890625 C 14.863281 2.078125 14.15625 2.171875 13.21875 2.171875 C 11.707031 2.171875 10.40625 2.125 9.3125 2.03125 L 8.921875 0.203125 C 10.515625 0.367188 11.707031 0.453125 12.5 0.453125 C 13.195312 0.453125 13.660156 0.320312 13.890625 0.0625 C 14.117188 -0.195312 14.234375 -0.6875 14.234375 -1.40625 L 14.234375 -1.90625 L 1.765625 -1.90625 L 1.765625 -3.640625 L 14.234375 -3.640625 L 14.234375 -5.40625 L 4.453125 -5.40625 L 4.453125 -7.078125 L 14.234375 -7.078125 L 14.234375 -8.78125 C 9.441406 -8.59375 5.832031 -8.5 3.40625 -8.5 L 3.25 -10.234375 L 4.453125 -10.234375 C 7.671875 -10.234375 11.320312 -10.328125 15.40625 -10.515625 C 19.5 -10.703125 22.867188 -10.925781 25.515625 -11.1875 L 25.75 -9.453125 C 23.03125 -9.222656 19.976562 -9.035156 16.59375 -8.890625 L 16.59375 -7.078125 L 25.375 -7.078125 L 25.375 -5.40625 Z M 16.59375 -5.40625 "/></g></g></g><g fill="#545454" fill-opacity="1"><g transform="translate(120.202904, 28.351546)"><g><path d="M 13.734375 2.859375 L 13.734375 -24.765625 L 16.140625 -24.765625 L 16.140625 2.859375 Z M 13.734375 2.859375 "/></g></g></g><g fill="#545454" fill-opacity="1"><g transform="translate(150.046841, 28.351546)"><g><path d="M 26.265625 -20.4375 L 26.265625 -1.90625 C 26.265625 -0.894531 26.15625 -0.140625 25.9375 0.359375 C 25.71875 0.859375 25.335938 1.207031 24.796875 1.40625 C 24.265625 1.601562 23.460938 1.703125 22.390625 1.703125 C 20.953125 1.703125 19.726562 1.648438 18.71875 1.546875 L 18.265625 -0.859375 C 19.472656 -0.703125 20.597656 -0.625 21.640625 -0.625 C 22.316406 -0.625 22.800781 -0.675781 23.09375 -0.78125 C 23.394531 -0.894531 23.597656 -1.09375 23.703125 -1.375 C 23.816406 -1.65625 23.875 -2.101562 23.875 -2.71875 L 23.875 -18.078125 L 16.140625 -18.078125 C 16.097656 -16.648438 15.941406 -15.347656 15.671875 -14.171875 C 16.703125 -13.234375 18.003906 -12 19.578125 -10.46875 C 21.148438 -8.9375 22.421875 -7.65625 23.390625 -6.625 L 21.671875 -4.71875 C 20.773438 -5.726562 19.675781 -6.914062 18.375 -8.28125 C 17.082031 -9.644531 15.910156 -10.84375 14.859375 -11.875 C 14.265625 -10.5625 13.40625 -9.289062 12.28125 -8.0625 C 11.15625 -6.84375 9.695312 -5.554688 7.90625 -4.203125 L 6.296875 -6.296875 C 8.203125 -7.671875 9.675781 -8.941406 10.71875 -10.109375 C 11.769531 -11.285156 12.519531 -12.492188 12.96875 -13.734375 C 13.414062 -14.984375 13.660156 -16.429688 13.703125 -18.078125 L 5.96875 -18.078125 L 5.96875 1.96875 L 3.578125 1.96875 L 3.578125 -20.4375 L 13.703125 -20.4375 L 13.703125 -24.953125 L 16.140625 -24.953125 L 16.140625 -20.4375 Z M 26.265625 -20.4375 "/></g></g></g><g fill="#545454" fill-opacity="1"><g transform="translate(179.890778, 28.351546)"><g><path d="M 5.15625 -19.78125 L 5.15625 -16.46875 L 2.828125 -16.46875 L 2.828125 -22 L 14.03125 -22 C 13.570312 -23.050781 13.132812 -23.960938 12.71875 -24.734375 L 15.015625 -25.609375 C 15.546875 -24.535156 16.050781 -23.332031 16.53125 -22 L 26.921875 -22 L 26.921875 -16.421875 L 24.5625 -16.421875 L 24.5625 -19.78125 Z M 18.0625 -18.734375 C 19.15625 -18.222656 20.585938 -17.515625 22.359375 -16.609375 C 24.128906 -15.703125 25.71875 -14.863281 27.125 -14.09375 L 26.078125 -12.140625 C 24.609375 -12.960938 22.984375 -13.84375 21.203125 -14.78125 C 19.421875 -15.726562 18.003906 -16.441406 16.953125 -16.921875 Z M 2.859375 -14.109375 C 4.210938 -14.648438 5.648438 -15.332031 7.171875 -16.15625 C 8.691406 -16.988281 10.117188 -17.84375 11.453125 -18.71875 L 12.625 -16.859375 C 9.894531 -15.023438 6.976562 -13.414062 3.875 -12.03125 Z M 27.671875 -4.953125 C 26.410156 -5.429688 25.125 -5.988281 23.8125 -6.625 L 23.8125 2.171875 L 21.453125 2.171875 L 21.453125 0.921875 L 8.328125 0.921875 L 8.328125 2.171875 L 5.96875 2.171875 L 5.96875 -6.625 C 4.53125 -5.945312 3.226562 -5.390625 2.0625 -4.953125 L 1.140625 -7.109375 C 4.097656 -8.179688 6.601562 -9.332031 8.65625 -10.5625 C 10.707031 -11.800781 12.425781 -13.195312 13.8125 -14.75 L 16 -14.75 C 17.46875 -13.15625 19.226562 -11.738281 21.28125 -10.5 C 23.332031 -9.269531 25.789062 -8.144531 28.65625 -7.125 Z M 22.265625 -7.40625 C 19.296875 -8.988281 16.847656 -10.773438 14.921875 -12.765625 C 12.910156 -10.765625 10.429688 -8.976562 7.484375 -7.40625 Z M 8.328125 -5.21875 L 8.328125 -1.1875 L 21.453125 -1.1875 L 21.453125 -5.21875 Z M 8.328125 -5.21875 "/></g></g></g><g fill="#545454" fill-opacity="1"><g transform="translate(209.734715, 28.351546)"><g><path d="M 19.609375 -14.203125 L 19.609375 -1.21875 L 28.5625 -1.21875 L 28.5625 1.015625 L 10.171875 1.015625 L 10.171875 -1.21875 L 17.1875 -1.21875 L 17.1875 -25.03125 L 19.609375 -25.03125 L 19.609375 -16.5625 L 27.3125 -16.5625 L 27.3125 -14.203125 Z M 7.9375 -17.375 C 6.300781 -19.476562 4.757812 -21.394531 3.3125 -23.125 L 5.109375 -24.65625 C 5.640625 -24.03125 6.367188 -23.15625 7.296875 -22.03125 C 8.222656 -20.914062 9.050781 -19.890625 9.78125 -18.953125 Z M 12 -4.0625 C 10.082031 -2.53125 8.457031 -1.125 7.125 0.15625 L 5.796875 1.46875 L 4.328125 -0.390625 C 4.648438 -0.648438 4.875 -0.90625 5 -1.15625 C 5.125 -1.414062 5.1875 -1.773438 5.1875 -2.234375 L 5.1875 -12.890625 L 1.40625 -12.890625 L 1.40625 -15.21875 L 7.515625 -15.21875 L 7.515625 -3.15625 L 11.046875 -6.296875 Z M 12 -4.0625 "/></g></g></g><g fill="#545454" fill-opacity="1"><g transform="translate(239.578652, 28.351546)"><g><path d="M 16.796875 -1.21875 L 28.328125 -1.21875 L 28.328125 1.1875 L 2.15625 1.1875 L 2.15625 -1.21875 L 14.203125 -1.21875 L 14.203125 -8.46875 L 4.8125 -8.46875 L 4.8125 -10.890625 L 14.203125 -10.890625 L 14.203125 -16.765625 L 7.21875 -16.765625 C 6.34375 -14.859375 5.28125 -12.960938 4.03125 -11.078125 L 1.671875 -12.359375 C 2.941406 -14.148438 4.007812 -15.96875 4.875 -17.8125 C 5.738281 -19.664062 6.460938 -21.707031 7.046875 -23.9375 L 9.609375 -23.375 C 9.234375 -22 8.785156 -20.625 8.265625 -19.25 L 14.203125 -19.25 L 14.203125 -24.953125 L 16.796875 -24.953125 L 16.796875 -19.25 L 27.1875 -19.25 L 27.1875 -16.765625 L 16.796875 -16.765625 L 16.796875 -10.890625 L 26.171875 -10.890625 L 26.171875 -8.46875 L 16.796875 -8.46875 Z M 16.796875 -1.21875 "/></g></g></g><g fill="#545454" fill-opacity="1"><g transform="translate(269.422589, 28.351546)"><g><path d="M 3.84375 -24.234375 C 5.125 -23.378906 6.894531 -22.085938 9.15625 -20.359375 L 7.796875 -18.328125 C 7.171875 -18.859375 6.320312 -19.515625 5.25 -20.296875 C 4.175781 -21.085938 3.253906 -21.734375 2.484375 -22.234375 Z M 28.40625 -13.90625 L 19.8125 -13.90625 L 19.8125 -9.453125 L 26.296875 -9.453125 L 26.296875 2.390625 L 23.875 2.390625 L 23.875 0.6875 L 13.515625 0.6875 L 13.515625 2.390625 L 11.109375 2.390625 L 11.109375 -9.453125 L 17.453125 -9.453125 L 17.453125 -13.90625 L 9.3125 -13.90625 L 9.3125 -16.171875 L 17.453125 -16.171875 L 17.453125 -20.734375 C 14.867188 -20.515625 12.515625 -20.378906 10.390625 -20.328125 L 10.234375 -22.5 C 12.960938 -22.601562 15.859375 -22.796875 18.921875 -23.078125 C 21.984375 -23.367188 24.476562 -23.691406 26.40625 -24.046875 L 26.859375 -21.8125 C 25.046875 -21.5 22.695312 -21.210938 19.8125 -20.953125 L 19.8125 -16.171875 L 28.40625 -16.171875 Z M 6.78125 -11.015625 C 5.90625 -11.765625 4.890625 -12.578125 3.734375 -13.453125 C 2.578125 -14.328125 1.648438 -14.984375 0.953125 -15.421875 L 2.359375 -17.40625 C 3.148438 -16.863281 4.125 -16.171875 5.28125 -15.328125 C 6.4375 -14.484375 7.410156 -13.738281 8.203125 -13.09375 Z M 2.203125 1.046875 C 2.585938 0.191406 3.289062 -1.523438 4.3125 -4.109375 C 5.332031 -6.703125 5.941406 -8.335938 6.140625 -9.015625 L 8.453125 -8.171875 C 8.242188 -7.515625 7.628906 -5.875 6.609375 -3.25 C 5.585938 -0.625 4.90625 1.09375 4.5625 1.90625 Z M 13.515625 -1.609375 L 23.875 -1.609375 L 23.875 -7.21875 L 13.515625 -7.21875 Z M 13.515625 -1.609375 "/></g></g></g><g fill="#545454" fill-opacity="1"><g transform="translate(299.266526, 28.351546)"><g><path d="M 27.9375 2.125 C 24.332031 1.863281 21.316406 1.484375 18.890625 0.984375 C 16.460938 0.484375 14.304688 -0.203125 12.421875 -1.078125 C 11.378906 -0.335938 10.054688 0.328125 8.453125 0.921875 C 6.859375 1.523438 4.867188 2.082031 2.484375 2.59375 L 1.546875 0.390625 C 3.617188 -0.0664062 5.332031 -0.515625 6.6875 -0.953125 C 8.039062 -1.390625 9.164062 -1.859375 10.0625 -2.359375 C 8.625 -3.253906 7.171875 -4.359375 5.703125 -5.671875 L 7.34375 -7.109375 C 9.03125 -5.628906 10.550781 -4.503906 11.90625 -3.734375 C 12.820312 -4.703125 13.390625 -6.015625 13.609375 -7.671875 L 4.5 -7.671875 L 4.5 -18.984375 L 13.765625 -18.984375 L 13.765625 -21.515625 L 2.234375 -21.515625 L 2.234375 -23.71875 L 27.78125 -23.71875 L 27.78125 -21.515625 L 16.140625 -21.515625 L 16.140625 -18.984375 L 25.484375 -18.984375 L 25.484375 -7.671875 L 16.03125 -7.671875 C 15.90625 -6.640625 15.6875 -5.707031 15.375 -4.875 C 15.070312 -4.050781 14.648438 -3.3125 14.109375 -2.65625 C 15.742188 -1.976562 17.695312 -1.445312 19.96875 -1.0625 C 22.238281 -0.675781 25.0625 -0.398438 28.4375 -0.234375 Z M 13.765625 -14.359375 L 13.765625 -16.953125 L 6.859375 -16.953125 L 6.859375 -14.359375 Z M 23.1875 -14.359375 L 23.1875 -16.953125 L 16.140625 -16.953125 L 16.140625 -14.359375 Z M 6.859375 -12.359375 L 6.859375 -9.703125 L 13.765625 -9.703125 L 13.765625 -12.359375 Z M 16.140625 -9.703125 L 23.1875 -9.703125 L 23.1875 -12.359375 L 16.140625 -12.359375 Z M 16.140625 -9.703125 "/></g></g></g><g fill="#545454" fill-opacity="1"><g transform="translate(329.110463, 28.351546)"><g><path d="M 28.375 -19.453125 L 12.265625 -19.453125 C 11.628906 -18.304688 10.960938 -17.222656 10.265625 -16.203125 L 24.953125 -16.203125 L 24.953125 -1.5 C 24.953125 -0.28125 24.726562 0.597656 24.28125 1.140625 C 23.832031 1.691406 23.082031 1.96875 22.03125 1.96875 C 20.65625 1.96875 19.257812 1.910156 17.84375 1.796875 L 17.421875 -0.453125 C 18.796875 -0.285156 20.09375 -0.203125 21.3125 -0.203125 C 21.800781 -0.203125 22.132812 -0.347656 22.3125 -0.640625 C 22.5 -0.929688 22.59375 -1.4375 22.59375 -2.15625 L 22.59375 -3.578125 L 9.015625 -3.578125 L 9.015625 2.09375 L 6.65625 2.09375 L 6.65625 -11.734375 C 5.257812 -10.273438 3.765625 -8.921875 2.171875 -7.671875 L 1.046875 -10.09375 C 4.609375 -12.757812 7.441406 -15.878906 9.546875 -19.453125 L 2.0625 -19.453125 L 2.0625 -21.71875 L 10.75 -21.71875 C 11.300781 -22.914062 11.773438 -24.125 12.171875 -25.34375 L 14.71875 -24.828125 C 14.238281 -23.640625 13.800781 -22.601562 13.40625 -21.71875 L 28.375 -21.71875 Z M 9.015625 -10.921875 L 22.59375 -10.921875 L 22.59375 -14.09375 L 9.015625 -14.09375 Z M 9.015625 -8.890625 L 9.015625 -5.640625 L 22.59375 -5.640625 L 22.59375 -8.890625 Z M 9.015625 -8.890625 "/></g></g></g><g fill="#545454" fill-opacity="1"><g transform="translate(358.9544, 28.351546)"><g><path d="M 28.46875 -8.75 L 28.65625 -6.359375 L 24.59375 -5.84375 L 24.59375 2.203125 L 22.359375 2.203125 L 22.359375 -5.578125 L 14.140625 -4.5625 L 14.03125 -6.921875 L 22.359375 -7.96875 L 22.359375 -24.921875 L 24.59375 -24.921875 L 24.59375 -8.265625 Z M 8.625 -10.0625 C 10.59375 -8.3125 12.144531 -6.804688 13.28125 -5.546875 L 11.703125 -3.90625 C 10.765625 -5.039062 9.738281 -6.164062 8.625 -7.28125 L 8.625 2.390625 L 6.359375 2.390625 L 6.359375 -9.515625 C 5.878906 -8.222656 5.316406 -6.972656 4.671875 -5.765625 C 4.023438 -4.566406 3.1875 -3.203125 2.15625 -1.671875 L 0.78125 -3.734375 C 2.769531 -6.359375 4.335938 -9.082031 5.484375 -11.90625 L 1.28125 -11.90625 L 1.28125 -14.171875 L 6.359375 -14.171875 L 6.359375 -24.703125 L 8.625 -24.703125 L 8.625 -14.171875 L 13.1875 -14.171875 L 13.1875 -11.90625 L 8.625 -11.90625 Z M 9.15625 -16.265625 C 9.5625 -17.078125 10.007812 -18.113281 10.5 -19.375 C 11 -20.644531 11.398438 -21.71875 11.703125 -22.59375 L 13.671875 -21.9375 C 13.390625 -21.132812 12.976562 -20.070312 12.4375 -18.75 C 11.90625 -17.425781 11.441406 -16.347656 11.046875 -15.515625 Z M 20.140625 -16.390625 C 19.484375 -17.046875 18.628906 -17.832031 17.578125 -18.75 C 16.523438 -19.675781 15.691406 -20.390625 15.078125 -20.890625 L 16.53125 -22.59375 C 17.207031 -22.050781 18.050781 -21.351562 19.0625 -20.5 C 20.082031 -19.644531 20.953125 -18.878906 21.671875 -18.203125 Z M 3.703125 -15.640625 C 3.421875 -16.554688 3.050781 -17.640625 2.59375 -18.890625 C 2.132812 -20.140625 1.75 -21.125 1.4375 -21.84375 L 3.375 -22.5625 C 3.6875 -21.820312 4.078125 -20.832031 4.546875 -19.59375 C 5.015625 -18.351562 5.398438 -17.253906 5.703125 -16.296875 Z M 19.375 -9.25 C 18.675781 -9.90625 17.78125 -10.703125 16.6875 -11.640625 C 15.59375 -12.578125 14.71875 -13.289062 14.0625 -13.78125 L 15.484375 -15.546875 C 16.203125 -15.023438 17.097656 -14.3125 18.171875 -13.40625 C 19.242188 -12.507812 20.148438 -11.710938 20.890625 -11.015625 Z M 19.375 -9.25 "/></g></g></g><g fill="#545454" fill-opacity="1"><g transform="translate(388.798337, 28.351546)"><g><path d="M 5.15625 -6.140625 L 4.78125 -22.65625 L 7.4375 -22.65625 L 7.046875 -6.140625 Z M 6.125 0.328125 C 5.664062 0.328125 5.269531 0.160156 4.9375 -0.171875 C 4.613281 -0.515625 4.453125 -0.914062 4.453125 -1.375 C 4.453125 -1.851562 4.613281 -2.257812 4.9375 -2.59375 C 5.269531 -2.9375 5.664062 -3.109375 6.125 -3.109375 C 6.59375 -3.109375 6.988281 -2.9375 7.3125 -2.59375 C 7.644531 -2.257812 7.8125 -1.851562 7.8125 -1.375 C 7.8125 -0.914062 7.644531 -0.515625 7.3125 -0.171875 C 6.988281 0.160156 6.59375 0.328125 6.125 0.328125 Z M 6.125 0.328125 "/></g></g></g></g></g><g fill="#545454" fill-opacity="1"><g transform="translate(294.019177, 205.770588)"><g><path d="M 7.515625 0.390625 C 8.953125 0.390625 10.300781 0.125 11.5625 -0.40625 C 12.820312 -0.945312 14.050781 -1.726562 15.25 -2.75 L 14.296875 -4.484375 C 13.335938 -3.722656 12.378906 -3.125 11.421875 -2.6875 C 10.472656 -2.25 9.472656 -2.03125 8.421875 -2.03125 C 7.378906 -2.03125 6.503906 -2.238281 5.796875 -2.65625 C 5.097656 -3.070312 4.578125 -3.664062 4.234375 -4.4375 C 3.898438 -5.21875 3.753906 -6.164062 3.796875 -7.28125 C 3.847656 -8.394531 4.09375 -9.640625 4.53125 -11.015625 C 4.96875 -12.390625 5.53125 -13.625 6.21875 -14.71875 C 6.90625 -15.8125 7.671875 -16.738281 8.515625 -17.5 C 9.359375 -18.269531 10.273438 -18.859375 11.265625 -19.265625 C 12.253906 -19.671875 13.265625 -19.875 14.296875 -19.875 C 15.253906 -19.875 16.035156 -19.679688 16.640625 -19.296875 C 17.242188 -18.910156 17.734375 -18.40625 18.109375 -17.78125 L 20.171875 -19.578125 C 19.972656 -19.929688 19.71875 -20.265625 19.40625 -20.578125 C 19.101562 -20.898438 18.742188 -21.191406 18.328125 -21.453125 C 17.910156 -21.710938 17.425781 -21.914062 16.875 -22.0625 C 16.332031 -22.21875 15.734375 -22.296875 15.078125 -22.296875 C 13.679688 -22.296875 12.304688 -22.035156 10.953125 -21.515625 C 9.597656 -20.992188 8.328125 -20.238281 7.140625 -19.25 C 5.960938 -18.269531 4.898438 -17.078125 3.953125 -15.671875 C 3.003906 -14.273438 2.242188 -12.691406 1.671875 -10.921875 C 1.097656 -9.148438 0.820312 -7.5625 0.84375 -6.15625 C 0.875 -4.757812 1.15625 -3.578125 1.6875 -2.609375 C 2.226562 -1.640625 2.992188 -0.894531 3.984375 -0.375 C 4.984375 0.132812 6.160156 0.390625 7.515625 0.390625 Z M 7.515625 0.390625 "/></g></g></g><g fill="#545454" fill-opacity="1"><g transform="translate(313.057073, 205.770588)"><g><path d="M 6.234375 0.390625 C 7.234375 0.390625 8.25 0.203125 9.28125 -0.171875 C 10.3125 -0.554688 11.289062 -1.109375 12.21875 -1.828125 C 13.144531 -2.554688 13.976562 -3.445312 14.71875 -4.5 C 15.46875 -5.5625 16.0625 -6.757812 16.5 -8.09375 C 16.9375 -9.4375 17.117188 -10.632812 17.046875 -11.6875 C 16.984375 -12.75 16.726562 -13.644531 16.28125 -14.375 C 15.832031 -15.113281 15.210938 -15.671875 14.421875 -16.046875 C 13.640625 -16.429688 12.753906 -16.625 11.765625 -16.625 C 10.765625 -16.625 9.742188 -16.429688 8.703125 -16.046875 C 7.671875 -15.671875 6.691406 -15.113281 5.765625 -14.375 C 4.847656 -13.644531 4.007812 -12.75 3.25 -11.6875 C 2.5 -10.632812 1.90625 -9.4375 1.46875 -8.09375 C 1.03125 -6.757812 0.84375 -5.5625 0.90625 -4.5 C 0.976562 -3.445312 1.242188 -2.554688 1.703125 -1.828125 C 2.160156 -1.109375 2.78125 -0.554688 3.5625 -0.171875 C 4.351562 0.203125 5.242188 0.390625 6.234375 0.390625 Z M 6.953125 -1.875 C 6.253906 -1.875 5.664062 -2.023438 5.1875 -2.328125 C 4.71875 -2.628906 4.363281 -3.046875 4.125 -3.578125 C 3.882812 -4.117188 3.773438 -4.769531 3.796875 -5.53125 C 3.828125 -6.300781 3.992188 -7.15625 4.296875 -8.09375 C 4.597656 -9.019531 4.984375 -9.863281 5.453125 -10.625 C 5.929688 -11.394531 6.460938 -12.054688 7.046875 -12.609375 C 7.640625 -13.171875 8.273438 -13.601562 8.953125 -13.90625 C 9.628906 -14.207031 10.316406 -14.359375 11.015625 -14.359375 C 11.710938 -14.359375 12.300781 -14.207031 12.78125 -13.90625 C 13.269531 -13.601562 13.632812 -13.171875 13.875 -12.609375 C 14.113281 -12.054688 14.21875 -11.394531 14.1875 -10.625 C 14.15625 -9.863281 13.992188 -9.019531 13.703125 -8.09375 C 13.398438 -7.15625 13.007812 -6.300781 12.53125 -5.53125 C 12.050781 -4.769531 11.515625 -4.117188 10.921875 -3.578125 C 10.328125 -3.046875 9.691406 -2.628906 9.015625 -2.328125 C 8.335938 -2.023438 7.648438 -1.875 6.953125 -1.875 Z M 6.953125 -1.875 "/></g></g></g><g fill="#545454" fill-opacity="1"><g transform="translate(331.140087, 205.770588)"><g><path d="M 0.0625 0 L 2.78125 0 L 6.59375 -11.765625 C 7.6875 -12.597656 8.625 -13.21875 9.40625 -13.625 C 10.195312 -14.03125 11.007812 -14.234375 11.84375 -14.234375 C 12.914062 -14.234375 13.585938 -13.894531 13.859375 -13.21875 C 14.128906 -12.539062 14.015625 -11.4375 13.515625 -9.90625 L 10.296875 0 L 13.015625 0 L 16.359375 -10.265625 C 17.035156 -12.359375 17.148438 -13.941406 16.703125 -15.015625 C 16.253906 -16.085938 15.171875 -16.625 13.453125 -16.625 C 12.335938 -16.625 11.265625 -16.351562 10.234375 -15.8125 C 9.203125 -15.28125 8.164062 -14.632812 7.125 -13.875 L 7.046875 -13.875 L 7.546875 -16.203125 L 5.3125 -16.203125 Z M 0.0625 0 "/></g></g></g><g fill="#545454" fill-opacity="1"><g transform="translate(349.372304, 205.770588)"><g><path d="M 4.359375 0.390625 C 4.859375 0.390625 5.378906 0.328125 5.921875 0.203125 C 6.472656 0.0859375 7.003906 -0.046875 7.515625 -0.203125 L 7.640625 -2.234375 C 7.335938 -2.140625 7.003906 -2.046875 6.640625 -1.953125 C 6.273438 -1.867188 5.953125 -1.828125 5.671875 -1.828125 C 4.734375 -1.828125 4.171875 -2.097656 3.984375 -2.640625 C 3.796875 -3.191406 3.859375 -3.960938 4.171875 -4.953125 L 7.109375 -14 L 11.484375 -14 L 12.203125 -16.203125 L 7.8125 -16.203125 L 9.3125 -20.765625 L 7.046875 -20.765625 L 5.21875 -16.203125 L 2.65625 -16.0625 L 1.96875 -14 L 4.390625 -14 L 1.5 -5.015625 C 1.238281 -4.210938 1.078125 -3.476562 1.015625 -2.8125 C 0.953125 -2.15625 1.023438 -1.585938 1.234375 -1.109375 C 1.441406 -0.628906 1.800781 -0.257812 2.3125 0 C 2.820312 0.257812 3.503906 0.390625 4.359375 0.390625 Z M 4.359375 0.390625 "/></g></g></g><g fill="#545454" fill-opacity="1"><g transform="translate(360.621966, 205.770588)"><g><path d="M 6.46875 0.390625 C 7.582031 0.390625 8.628906 0.226562 9.609375 -0.09375 C 10.585938 -0.425781 11.515625 -0.820312 12.390625 -1.28125 L 11.96875 -3.078125 C 11.25 -2.679688 10.519531 -2.367188 9.78125 -2.140625 C 9.050781 -1.910156 8.285156 -1.796875 7.484375 -1.796875 C 5.929688 -1.796875 4.84375 -2.300781 4.21875 -3.3125 C 3.59375 -4.320312 3.507812 -5.707031 3.96875 -7.46875 L 14.890625 -7.46875 C 14.992188 -7.664062 15.097656 -7.894531 15.203125 -8.15625 C 15.316406 -8.425781 15.421875 -8.710938 15.515625 -9.015625 C 15.890625 -10.171875 16.085938 -11.210938 16.109375 -12.140625 C 16.128906 -13.078125 15.96875 -13.878906 15.625 -14.546875 C 15.289062 -15.210938 14.785156 -15.722656 14.109375 -16.078125 C 13.429688 -16.441406 12.578125 -16.625 11.546875 -16.625 C 10.609375 -16.625 9.632812 -16.421875 8.625 -16.015625 C 7.613281 -15.617188 6.648438 -15.050781 5.734375 -14.3125 C 4.816406 -13.582031 3.976562 -12.691406 3.21875 -11.640625 C 2.46875 -10.585938 1.882812 -9.40625 1.46875 -8.09375 C 1.03125 -6.757812 0.84375 -5.5625 0.90625 -4.5 C 0.976562 -3.445312 1.25 -2.554688 1.71875 -1.828125 C 2.1875 -1.109375 2.828125 -0.554688 3.640625 -0.171875 C 4.453125 0.203125 5.394531 0.390625 6.46875 0.390625 Z M 4.59375 -9.4375 C 4.9375 -10.226562 5.34375 -10.929688 5.8125 -11.546875 C 6.289062 -12.160156 6.804688 -12.679688 7.359375 -13.109375 C 7.921875 -13.546875 8.5 -13.875 9.09375 -14.09375 C 9.695312 -14.320312 10.285156 -14.4375 10.859375 -14.4375 C 12.128906 -14.4375 12.976562 -14.007812 13.40625 -13.15625 C 13.84375 -12.300781 13.800781 -11.0625 13.28125 -9.4375 Z M 4.59375 -9.4375 "/></g></g></g><g fill="#545454" fill-opacity="1"><g transform="translate(377.153308, 205.770588)"><g><path d="M 0.0625 0 L 2.78125 0 L 6.59375 -11.765625 C 7.6875 -12.597656 8.625 -13.21875 9.40625 -13.625 C 10.195312 -14.03125 11.007812 -14.234375 11.84375 -14.234375 C 12.914062 -14.234375 13.585938 -13.894531 13.859375 -13.21875 C 14.128906 -12.539062 14.015625 -11.4375 13.515625 -9.90625 L 10.296875 0 L 13.015625 0 L 16.359375 -10.265625 C 17.035156 -12.359375 17.148438 -13.941406 16.703125 -15.015625 C 16.253906 -16.085938 15.171875 -16.625 13.453125 -16.625 C 12.335938 -16.625 11.265625 -16.351562 10.234375 -15.8125 C 9.203125 -15.28125 8.164062 -14.632812 7.125 -13.875 L 7.046875 -13.875 L 7.546875 -16.203125 L 5.3125 -16.203125 Z M 0.0625 0 "/></g></g></g><g fill="#545454" fill-opacity="1"><g transform="translate(395.385525, 205.770588)"><g><path d="M 4.359375 0.390625 C 4.859375 0.390625 5.378906 0.328125 5.921875 0.203125 C 6.472656 0.0859375 7.003906 -0.046875 7.515625 -0.203125 L 7.640625 -2.234375 C 7.335938 -2.140625 7.003906 -2.046875 6.640625 -1.953125 C 6.273438 -1.867188 5.953125 -1.828125 5.671875 -1.828125 C 4.734375 -1.828125 4.171875 -2.097656 3.984375 -2.640625 C 3.796875 -3.191406 3.859375 -3.960938 4.171875 -4.953125 L 7.109375 -14 L 11.484375 -14 L 12.203125 -16.203125 L 7.8125 -16.203125 L 9.3125 -20.765625 L 7.046875 -20.765625 L 5.21875 -16.203125 L 2.65625 -16.0625 L 1.96875 -14 L 4.390625 -14 L 1.5 -5.015625 C 1.238281 -4.210938 1.078125 -3.476562 1.015625 -2.8125 C 0.953125 -2.15625 1.023438 -1.585938 1.234375 -1.109375 C 1.441406 -0.628906 1.800781 -0.257812 2.3125 0 C 2.820312 0.257812 3.503906 0.390625 4.359375 0.390625 Z M 4.359375 0.390625 "/></g></g></g><g fill="#545454" fill-opacity="1"><g transform="translate(406.635188, 205.770588)"><g/></g></g><g fill="#545454" fill-opacity="1"><g transform="translate(413.319343, 205.770588)"><g><path d="M 6.46875 0.390625 C 7.582031 0.390625 8.628906 0.226562 9.609375 -0.09375 C 10.585938 -0.425781 11.515625 -0.820312 12.390625 -1.28125 L 11.96875 -3.078125 C 11.25 -2.679688 10.519531 -2.367188 9.78125 -2.140625 C 9.050781 -1.910156 8.285156 -1.796875 7.484375 -1.796875 C 5.929688 -1.796875 4.84375 -2.300781 4.21875 -3.3125 C 3.59375 -4.320312 3.507812 -5.707031 3.96875 -7.46875 L 14.890625 -7.46875 C 14.992188 -7.664062 15.097656 -7.894531 15.203125 -8.15625 C 15.316406 -8.425781 15.421875 -8.710938 15.515625 -9.015625 C 15.890625 -10.171875 16.085938 -11.210938 16.109375 -12.140625 C 16.128906 -13.078125 15.96875 -13.878906 15.625 -14.546875 C 15.289062 -15.210938 14.785156 -15.722656 14.109375 -16.078125 C 13.429688 -16.441406 12.578125 -16.625 11.546875 -16.625 C 10.609375 -16.625 9.632812 -16.421875 8.625 -16.015625 C 7.613281 -15.617188 6.648438 -15.050781 5.734375 -14.3125 C 4.816406 -13.582031 3.976562 -12.691406 3.21875 -11.640625 C 2.46875 -10.585938 1.882812 -9.40625 1.46875 -8.09375 C 1.03125 -6.757812 0.84375 -5.5625 0.90625 -4.5 C 0.976562 -3.445312 1.25 -2.554688 1.71875 -1.828125 C 2.1875 -1.109375 2.828125 -0.554688 3.640625 -0.171875 C 4.453125 0.203125 5.394531 0.390625 6.46875 0.390625 Z M 4.59375 -9.4375 C 4.9375 -10.226562 5.34375 -10.929688 5.8125 -11.546875 C 6.289062 -12.160156 6.804688 -12.679688 7.359375 -13.109375 C 7.921875 -13.546875 8.5 -13.875 9.09375 -14.09375 C 9.695312 -14.320312 10.285156 -14.4375 10.859375 -14.4375 C 12.128906 -14.4375 12.976562 -14.007812 13.40625 -13.15625 C 13.84375 -12.300781 13.800781 -11.0625 13.28125 -9.4375 Z M 4.59375 -9.4375 "/></g></g></g><g fill="#545454" fill-opacity="1"><g transform="translate(429.850693, 205.770588)"><g><path d="M 0.0625 0 L 2.78125 0 L 6.59375 -11.765625 C 7.6875 -12.597656 8.625 -13.21875 9.40625 -13.625 C 10.195312 -14.03125 11.007812 -14.234375 11.84375 -14.234375 C 12.914062 -14.234375 13.585938 -13.894531 13.859375 -13.21875 C 14.128906 -12.539062 14.015625 -11.4375 13.515625 -9.90625 L 10.296875 0 L 13.015625 0 L 16.359375 -10.265625 C 17.035156 -12.359375 17.148438 -13.941406 16.703125 -15.015625 C 16.253906 -16.085938 15.171875 -16.625 13.453125 -16.625 C 12.335938 -16.625 11.265625 -16.351562 10.234375 -15.8125 C 9.203125 -15.28125 8.164062 -14.632812 7.125 -13.875 L 7.046875 -13.875 L 7.546875 -16.203125 L 5.3125 -16.203125 Z M 0.0625 0 "/></g></g></g><g fill="#545454" fill-opacity="1"><g transform="translate(448.08291, 205.770588)"><g><path d="M 0.0625 0 L 2.78125 0 L 6.140625 -10.421875 C 7.160156 -11.804688 8.132812 -12.769531 9.0625 -13.3125 C 9.988281 -13.863281 10.785156 -14.140625 11.453125 -14.140625 C 11.796875 -14.140625 12.070312 -14.117188 12.28125 -14.078125 C 12.488281 -14.046875 12.710938 -13.976562 12.953125 -13.875 L 14.234375 -16.265625 C 13.859375 -16.503906 13.320312 -16.625 12.625 -16.625 C 11.707031 -16.625 10.753906 -16.316406 9.765625 -15.703125 C 8.785156 -15.097656 7.835938 -14.28125 6.921875 -13.25 L 6.828125 -13.25 L 7.546875 -16.203125 L 5.3125 -16.203125 Z M 0.0625 0 "/></g></g></g><g fill="#545454" fill-opacity="1"><g transform="translate(459.660814, 205.770588)"><g><path d="M -1.015625 0 L 1.703125 0 L 6.953125 -16.203125 L 4.234375 -16.203125 Z M 6.71875 -19.546875 C 7.25 -19.546875 7.738281 -19.707031 8.1875 -20.03125 C 8.632812 -20.363281 8.945312 -20.8125 9.125 -21.375 C 9.289062 -21.882812 9.257812 -22.300781 9.03125 -22.625 C 8.800781 -22.957031 8.414062 -23.125 7.875 -23.125 C 7.34375 -23.125 6.851562 -22.957031 6.40625 -22.625 C 5.957031 -22.300781 5.648438 -21.882812 5.484375 -21.375 C 5.304688 -20.8125 5.332031 -20.363281 5.5625 -20.03125 C 5.789062 -19.707031 6.175781 -19.546875 6.71875 -19.546875 Z M 6.71875 -19.546875 "/></g></g></g><g fill="#545454" fill-opacity="1"><g transform="translate(467.866798, 205.770588)"><g><path d="M 6.328125 0.390625 C 7.304688 0.390625 8.296875 0.210938 9.296875 -0.140625 C 10.296875 -0.503906 11.273438 -1.015625 12.234375 -1.671875 L 11.640625 -3.484375 C 10.984375 -3.035156 10.28125 -2.65625 9.53125 -2.34375 C 8.789062 -2.03125 8.039062 -1.875 7.28125 -1.875 C 6.539062 -1.875 5.90625 -2.023438 5.375 -2.328125 C 4.851562 -2.628906 4.460938 -3.046875 4.203125 -3.578125 C 3.941406 -4.117188 3.816406 -4.769531 3.828125 -5.53125 C 3.835938 -6.300781 3.992188 -7.15625 4.296875 -8.09375 C 4.597656 -9.019531 5 -9.863281 5.5 -10.625 C 6.007812 -11.394531 6.578125 -12.054688 7.203125 -12.609375 C 7.828125 -13.171875 8.503906 -13.601562 9.234375 -13.90625 C 9.960938 -14.207031 10.695312 -14.359375 11.4375 -14.359375 C 12.070312 -14.359375 12.609375 -14.222656 13.046875 -13.953125 C 13.484375 -13.679688 13.867188 -13.335938 14.203125 -12.921875 L 16.171875 -14.71875 C 15.753906 -15.226562 15.226562 -15.671875 14.59375 -16.046875 C 13.957031 -16.429688 13.113281 -16.625 12.0625 -16.625 C 11.019531 -16.625 9.96875 -16.429688 8.90625 -16.046875 C 7.84375 -15.671875 6.832031 -15.113281 5.875 -14.375 C 4.925781 -13.644531 4.0625 -12.75 3.28125 -11.6875 C 2.507812 -10.632812 1.90625 -9.4375 1.46875 -8.09375 C 1.03125 -6.757812 0.832031 -5.5625 0.875 -4.5 C 0.925781 -3.445312 1.175781 -2.554688 1.625 -1.828125 C 2.070312 -1.109375 2.695312 -0.554688 3.5 -0.171875 C 4.3125 0.203125 5.253906 0.390625 6.328125 0.390625 Z M 6.328125 0.390625 "/></g></g></g><g fill="#545454" fill-opacity="1"><g transform="translate(483.055343, 205.770588)"><g><path d="M -1.109375 0 L 1.609375 0 L 5.4375 -11.765625 C 6.53125 -12.597656 7.46875 -13.21875 8.25 -13.625 C 9.039062 -14.03125 9.851562 -14.234375 10.6875 -14.234375 C 11.757812 -14.234375 12.425781 -13.894531 12.6875 -13.21875 C 12.957031 -12.539062 12.847656 -11.4375 12.359375 -9.90625 L 9.125 0 L 11.84375 0 L 15.1875 -10.265625 C 15.863281 -12.359375 15.976562 -13.941406 15.53125 -15.015625 C 15.082031 -16.085938 14.003906 -16.625 12.296875 -16.625 C 11.179688 -16.625 10.109375 -16.359375 9.078125 -15.828125 C 8.054688 -15.304688 7.039062 -14.664062 6.03125 -13.90625 L 7.21875 -17.25 L 9.34375 -23.75 L 6.625 -23.75 Z M -1.109375 0 "/></g></g></g><g fill="#545454" fill-opacity="1"><g transform="translate(501.168185, 205.770588)"><g><path d="M 6.46875 0.390625 C 7.582031 0.390625 8.628906 0.226562 9.609375 -0.09375 C 10.585938 -0.425781 11.515625 -0.820312 12.390625 -1.28125 L 11.96875 -3.078125 C 11.25 -2.679688 10.519531 -2.367188 9.78125 -2.140625 C 9.050781 -1.910156 8.285156 -1.796875 7.484375 -1.796875 C 5.929688 -1.796875 4.84375 -2.300781 4.21875 -3.3125 C 3.59375 -4.320312 3.507812 -5.707031 3.96875 -7.46875 L 14.890625 -7.46875 C 14.992188 -7.664062 15.097656 -7.894531 15.203125 -8.15625 C 15.316406 -8.425781 15.421875 -8.710938 15.515625 -9.015625 C 15.890625 -10.171875 16.085938 -11.210938 16.109375 -12.140625 C 16.128906 -13.078125 15.96875 -13.878906 15.625 -14.546875 C 15.289062 -15.210938 14.785156 -15.722656 14.109375 -16.078125 C 13.429688 -16.441406 12.578125 -16.625 11.546875 -16.625 C 10.609375 -16.625 9.632812 -16.421875 8.625 -16.015625 C 7.613281 -15.617188 6.648438 -15.050781 5.734375 -14.3125 C 4.816406 -13.582031 3.976562 -12.691406 3.21875 -11.640625 C 2.46875 -10.585938 1.882812 -9.40625 1.46875 -8.09375 C 1.03125 -6.757812 0.84375 -5.5625 0.90625 -4.5 C 0.976562 -3.445312 1.25 -2.554688 1.71875 -1.828125 C 2.1875 -1.109375 2.828125 -0.554688 3.640625 -0.171875 C 4.453125 0.203125 5.394531 0.390625 6.46875 0.390625 Z M 4.59375 -9.4375 C 4.9375 -10.226562 5.34375 -10.929688 5.8125 -11.546875 C 6.289062 -12.160156 6.804688 -12.679688 7.359375 -13.109375 C 7.921875 -13.546875 8.5 -13.875 9.09375 -14.09375 C 9.695312 -14.320312 10.285156 -14.4375 10.859375 -14.4375 C 12.128906 -14.4375 12.976562 -14.007812 13.40625 -13.15625 C 13.84375 -12.300781 13.800781 -11.0625 13.28125 -9.4375 Z M 4.59375 -9.4375 "/></g></g></g><g fill="#545454" fill-opacity="1"><g transform="translate(517.699527, 205.770588)"><g><path d="M 4.171875 0.390625 C 5.128906 0.390625 6.015625 0.257812 6.828125 0 C 7.648438 -0.257812 8.378906 -0.601562 9.015625 -1.03125 C 9.648438 -1.457031 10.191406 -1.960938 10.640625 -2.546875 C 11.085938 -3.140625 11.421875 -3.765625 11.640625 -4.421875 C 11.898438 -5.191406 11.960938 -5.832031 11.828125 -6.34375 C 11.703125 -6.863281 11.460938 -7.304688 11.109375 -7.671875 C 10.765625 -8.046875 10.335938 -8.363281 9.828125 -8.625 C 9.328125 -8.882812 8.816406 -9.125 8.296875 -9.34375 C 7.898438 -9.519531 7.515625 -9.691406 7.140625 -9.859375 C 6.773438 -10.023438 6.460938 -10.210938 6.203125 -10.421875 C 5.941406 -10.640625 5.757812 -10.882812 5.65625 -11.15625 C 5.5625 -11.4375 5.578125 -11.765625 5.703125 -12.140625 C 5.921875 -12.773438 6.347656 -13.320312 6.984375 -13.78125 C 7.617188 -14.238281 8.453125 -14.46875 9.484375 -14.46875 C 10.203125 -14.46875 10.8125 -14.332031 11.3125 -14.0625 C 11.8125 -13.800781 12.269531 -13.460938 12.6875 -13.046875 L 14.5625 -14.796875 C 14.101562 -15.296875 13.503906 -15.722656 12.765625 -16.078125 C 12.035156 -16.441406 11.160156 -16.625 10.140625 -16.625 C 9.265625 -16.625 8.4375 -16.503906 7.65625 -16.265625 C 6.882812 -16.023438 6.191406 -15.695312 5.578125 -15.28125 C 4.960938 -14.863281 4.441406 -14.375 4.015625 -13.8125 C 3.585938 -13.257812 3.265625 -12.664062 3.046875 -12.03125 C 2.828125 -11.351562 2.773438 -10.765625 2.890625 -10.265625 C 3.015625 -9.765625 3.238281 -9.332031 3.5625 -8.96875 C 3.894531 -8.601562 4.300781 -8.296875 4.78125 -8.046875 C 5.269531 -7.796875 5.765625 -7.5625 6.265625 -7.34375 C 6.660156 -7.164062 7.046875 -6.984375 7.421875 -6.796875 C 7.804688 -6.617188 8.128906 -6.410156 8.390625 -6.171875 C 8.660156 -5.929688 8.851562 -5.65625 8.96875 -5.34375 C 9.09375 -5.039062 9.085938 -4.679688 8.953125 -4.265625 C 8.734375 -3.566406 8.28125 -2.96875 7.59375 -2.46875 C 6.90625 -1.976562 6.023438 -1.734375 4.953125 -1.734375 C 3.972656 -1.734375 3.160156 -1.90625 2.515625 -2.25 C 1.867188 -2.601562 1.289062 -3.066406 0.78125 -3.640625 L -1.15625 -1.84375 C -0.582031 -1.207031 0.160156 -0.675781 1.078125 -0.25 C 1.992188 0.175781 3.023438 0.390625 4.171875 0.390625 Z M 4.171875 0.390625 "/></g></g></g><g fill="#545454" fill-opacity="1"><g transform="translate(531.664635, 205.770588)"><g/></g></g><g fill="#545454" fill-opacity="1"><g transform="translate(538.34879, 205.770588)"><g><path d="M 1.640625 0.390625 C 2.015625 0.390625 2.328125 0.367188 2.578125 0.328125 C 2.828125 0.285156 3.0625 0.226562 3.28125 0.15625 L 3.578125 -1.9375 C 3.421875 -1.894531 3.300781 -1.875 3.21875 -1.875 C 3.144531 -1.875 3.066406 -1.875 2.984375 -1.875 C 2.765625 -1.875 2.609375 -1.960938 2.515625 -2.140625 C 2.429688 -2.328125 2.457031 -2.628906 2.59375 -3.046875 L 9.34375 -23.75 L 6.625 -23.75 L -0.0625 -3.21875 C -0.4375 -2.070312 -0.5 -1.179688 -0.25 -0.546875 C 0 0.078125 0.628906 0.390625 1.640625 0.390625 Z M 1.640625 0.390625 "/></g></g></g><g fill="#545454" fill-opacity="1"><g transform="translate(546.85318, 205.770588)"><g><path d="M -1.015625 0 L 1.703125 0 L 6.953125 -16.203125 L 4.234375 -16.203125 Z M 6.71875 -19.546875 C 7.25 -19.546875 7.738281 -19.707031 8.1875 -20.03125 C 8.632812 -20.363281 8.945312 -20.8125 9.125 -21.375 C 9.289062 -21.882812 9.257812 -22.300781 9.03125 -22.625 C 8.800781 -22.957031 8.414062 -23.125 7.875 -23.125 C 7.34375 -23.125 6.851562 -22.957031 6.40625 -22.625 C 5.957031 -22.300781 5.648438 -21.882812 5.484375 -21.375 C 5.304688 -20.8125 5.332031 -20.363281 5.5625 -20.03125 C 5.789062 -19.707031 6.175781 -19.546875 6.71875 -19.546875 Z M 6.71875 -19.546875 "/></g></g></g><g fill="#545454" fill-opacity="1"><g transform="translate(555.059179, 205.770588)"><g><path d="M -0.71875 0 L 2 0 L 6.53125 -14 L 9.96875 -14 L 10.6875 -16.203125 L 7.25 -16.203125 L 8.09375 -18.765625 C 8.78125 -20.898438 9.894531 -21.96875 11.4375 -21.96875 C 12.050781 -21.96875 12.613281 -21.828125 13.125 -21.546875 L 14.390625 -23.609375 C 14.066406 -23.765625 13.6875 -23.890625 13.25 -23.984375 C 12.8125 -24.085938 12.34375 -24.140625 11.84375 -24.140625 C 10.238281 -24.140625 8.890625 -23.660156 7.796875 -22.703125 C 6.710938 -21.753906 5.914062 -20.453125 5.40625 -18.796875 L 4.53125 -16.203125 L 2.296875 -16.0625 L 1.609375 -14 L 3.8125 -14 Z M -0.71875 0 "/></g></g></g><g fill="#545454" fill-opacity="1"><g transform="translate(564.757147, 205.770588)"><g><path d="M 6.46875 0.390625 C 7.582031 0.390625 8.628906 0.226562 9.609375 -0.09375 C 10.585938 -0.425781 11.515625 -0.820312 12.390625 -1.28125 L 11.96875 -3.078125 C 11.25 -2.679688 10.519531 -2.367188 9.78125 -2.140625 C 9.050781 -1.910156 8.285156 -1.796875 7.484375 -1.796875 C 5.929688 -1.796875 4.84375 -2.300781 4.21875 -3.3125 C 3.59375 -4.320312 3.507812 -5.707031 3.96875 -7.46875 L 14.890625 -7.46875 C 14.992188 -7.664062 15.097656 -7.894531 15.203125 -8.15625 C 15.316406 -8.425781 15.421875 -8.710938 15.515625 -9.015625 C 15.890625 -10.171875 16.085938 -11.210938 16.109375 -12.140625 C 16.128906 -13.078125 15.96875 -13.878906 15.625 -14.546875 C 15.289062 -15.210938 14.785156 -15.722656 14.109375 -16.078125 C 13.429688 -16.441406 12.578125 -16.625 11.546875 -16.625 C 10.609375 -16.625 9.632812 -16.421875 8.625 -16.015625 C 7.613281 -15.617188 6.648438 -15.050781 5.734375 -14.3125 C 4.816406 -13.582031 3.976562 -12.691406 3.21875 -11.640625 C 2.46875 -10.585938 1.882812 -9.40625 1.46875 -8.09375 C 1.03125 -6.757812 0.84375 -5.5625 0.90625 -4.5 C 0.976562 -3.445312 1.25 -2.554688 1.71875 -1.828125 C 2.1875 -1.109375 2.828125 -0.554688 3.640625 -0.171875 C 4.453125 0.203125 5.394531 0.390625 6.46875 0.390625 Z M 4.59375 -9.4375 C 4.9375 -10.226562 5.34375 -10.929688 5.8125 -11.546875 C 6.289062 -12.160156 6.804688 -12.679688 7.359375 -13.109375 C 7.921875 -13.546875 8.5 -13.875 9.09375 -14.09375 C 9.695312 -14.320312 10.285156 -14.4375 10.859375 -14.4375 C 12.128906 -14.4375 12.976562 -14.007812 13.40625 -13.15625 C 13.84375 -12.300781 13.800781 -11.0625 13.28125 -9.4375 Z M 4.59375 -9.4375 "/></g></g></g><g fill="#545454" fill-opacity="1"><g transform="translate(581.28852, 205.770588)"><g><path d="M 5.1875 -7.21875 L 7.15625 -7.21875 L 11.515625 -18.796875 L 12.71875 -22.328125 L 9.4375 -22.328125 L 8.359375 -18.796875 Z M 3.765625 0.15625 C 4.398438 0.15625 5.015625 -0.0390625 5.609375 -0.4375 C 6.203125 -0.84375 6.609375 -1.394531 6.828125 -2.09375 C 7.046875 -2.789062 6.988281 -3.335938 6.65625 -3.734375 C 6.332031 -4.128906 5.851562 -4.328125 5.21875 -4.328125 C 4.625 -4.328125 4.039062 -4.128906 3.46875 -3.734375 C 2.90625 -3.335938 2.515625 -2.789062 2.296875 -2.09375 C 2.078125 -1.394531 2.113281 -0.84375 2.40625 -0.4375 C 2.707031 -0.0390625 3.160156 0.15625 3.765625 0.15625 Z M 3.765625 0.15625 "/></g></g></g><path fill="#f78f27" d="M 193.296875 84.738281 C 191.324219 63.363281 186.597656 41.671875 174.765625 23.460938 C 145.78125 16.628906 113.859375 24.378906 91.203125 43.734375 C 107.253906 44.101562 123.03125 48.136719 137.890625 54.101562 C 157.519531 61.988281 175.773438 72.902344 193.296875 84.738281 Z M 193.296875 84.738281 " fill-opacity="1" fill-rule="nonzero"/><path fill="#f78f27" d="M 195.3125 59.421875 C 200.359375 84.1875 200.449219 109.6875 198.476562 134.773438 C 215.816406 122.347656 233.058594 107.714844 242.1875 87.992188 C 234.160156 59.238281 211 35.800781 183.113281 25.617188 C 183.113281 25.617188 190.679688 41.625 193.9375 53 C 194.394531 55.15625 194.902344 57.265625 195.3125 59.421875 Z M 195.3125 59.421875 " fill-opacity="1" fill-rule="nonzero"/><path fill="#f78f27" d="M 87.714844 62.8125 C 87.671875 70.289062 87.714844 77.8125 87.671875 85.289062 C 95.054688 85.058594 102.53125 85.929688 109.824219 84.964844 C 121.839844 77.351562 134.3125 70.425781 147.109375 64.144531 C 128.949219 56.027344 109.457031 49.652344 89.367188 49.742188 C 87.488281 49.925781 85.148438 49.558594 83.726562 51.074219 C 80.332031 54.648438 77.625 58.777344 74.691406 62.769531 C 79.046875 62.8125 83.40625 62.8125 87.714844 62.8125 Z M 87.714844 62.8125 " fill-opacity="1" fill-rule="nonzero"/><path fill="#f78f27" d="M 80.285156 90.425781 C 80.285156 83.542969 80.285156 76.710938 80.285156 69.832031 C 73.039062 69.878906 65.792969 69.878906 58.546875 69.878906 C 58.5 76.710938 58.546875 83.589844 58.546875 90.425781 C 65.792969 90.378906 73.039062 90.378906 80.285156 90.425781 Z M 80.285156 90.425781 " fill-opacity="1" fill-rule="nonzero"/><path fill="#f78f27" d="M 33.871094 102.027344 C 39.605469 101.890625 45.382812 101.9375 51.117188 102.027344 C 50.980469 96.660156 51.023438 91.25 51.117188 85.882812 C 45.199219 85.976562 39.285156 85.929688 33.367188 85.976562 C 33.320312 91.296875 34.007812 96.660156 33.871094 102.027344 Z M 33.871094 102.027344 " fill-opacity="1" fill-rule="nonzero"/><path fill="#f78f27" d="M 244.296875 96.570312 C 233.242188 114.550781 217.097656 128.765625 199.714844 140.460938 C 186.324219 149.589844 171.96875 157.203125 157.382812 164.265625 C 176.832031 173.253906 198.019531 180.410156 219.757812 179.078125 C 240.398438 157.433594 249.570312 125.921875 244.296875 96.570312 Z M 244.296875 96.570312 " fill-opacity="1" fill-rule="nonzero"/><path fill="#f78f27" d="M 104.546875 98.816406 C 96.382812 98.957031 88.21875 98.589844 80.054688 99 C 74.371094 98.726562 68.683594 98.863281 62.996094 98.816406 C 62.996094 111.75 63.039062 124.730469 62.996094 137.664062 C 76.847656 137.617188 90.742188 137.664062 104.59375 137.710938 C 104.546875 124.777344 104.6875 111.796875 104.546875 98.816406 Z M 104.546875 98.816406 " fill-opacity="1" fill-rule="nonzero"/><g clip-path="url(#ababfc4ff2)"><path fill="#f78f27" d="M 16.441406 100.652344 C 16.441406 104.046875 16.441406 107.441406 16.441406 110.878906 C 20.15625 110.832031 23.917969 110.832031 27.632812 110.925781 C 27.585938 107.484375 27.585938 104.046875 27.632812 100.605469 C 23.917969 100.652344 20.203125 100.652344 16.441406 100.652344 Z M 16.441406 100.652344 " fill-opacity="1" fill-rule="nonzero"/></g><path fill="#f78f27" d="M 56.160156 114.183594 C 47.769531 114.183594 39.328125 114.183594 30.9375 114.226562 C 30.9375 122.023438 30.980469 129.820312 30.9375 137.617188 C 39.328125 137.617188 47.769531 137.574219 56.160156 137.664062 C 56.160156 129.867188 56.160156 122.023438 56.160156 114.183594 Z M 56.160156 114.183594 " fill-opacity="1" fill-rule="nonzero"/><path fill="#f78f27" d="M 55.152344 144.910156 C 55.289062 152.433594 55.199219 160 55.242188 167.523438 C 63.453125 167.476562 71.617188 167.476562 79.828125 167.523438 C 79.828125 160 79.78125 152.433594 79.875 144.910156 C 71.570312 144.910156 63.363281 144.957031 55.152344 144.910156 Z M 55.152344 144.910156 " fill-opacity="1" fill-rule="nonzero"/><path fill="#f78f27" d="M 112.34375 143.625 C 114.363281 164.90625 118.582031 186.785156 130.414062 204.949219 C 159.355469 211.828125 191.277344 204.671875 214.070312 185.410156 C 200.359375 184.8125 186.78125 181.832031 173.941406 177.0625 C 151.925781 168.988281 131.699219 156.835938 112.34375 143.625 Z M 112.34375 143.625 " fill-opacity="1" fill-rule="nonzero"/><path fill="#f78f27" d="M 85.238281 157.339844 C 85.285156 164.175781 85.285156 171.054688 85.191406 177.886719 C 95.238281 188.894531 107.988281 197.242188 121.839844 202.652344 C 114.636719 188.480469 110.234375 173.070312 108.21875 157.339844 C 100.558594 157.386719 92.898438 157.386719 85.238281 157.339844 Z M 85.238281 157.339844 " fill-opacity="1" fill-rule="nonzero"/></g></g></svg>